# xmcd CD database file
#
# Track frame offsets:
#	150
#	29326
#	51689
#	75973
#	98490
#	120141
#	145265
#	171611
#	191773
#	217492
#	242509
#	271090
#	297334
#
# Disc length: 4269 seconds
#
# Revision: 4
# Processed by: cddbd v1.5.2PL0 Copyright (c) Steve Scherf et al.
# Submitted via: CDex 1.51
#
DISCID=be10ab0d
DTITLE=Petra Hammesfahr - Das letzte Opfer CD01
DYEAR=2002
DGENRE=Other
TTITLE0=Petra Hammesfahr - Das letzte Opfer...
TTITLE1=Als man ihr das Baby in den Arm legte...
TTITLE2=Es geschah am 14. September 1990...
TTITLE3=Und dann kam...
TTITLE4=Zwei Jahre lang sah es so aus...
TTITLE5=Während der Fahrt...
TTITLE6=Scheib war kein Fachmann...
TTITLE7=Ihr Bruder kam oft...
TTITLE8=Im Frühjahr 1995...
TTITLE9=Doch das konnte Thomas Scheib...
TTITLE10=Seine Aktion führte zu...
TTITLE11=Irgendwann spürte sie etwas...
TTITLE12=Ende Februar 1997...
EXTD=YEAR: 2002
EXTT0=
EXTT1=
EXTT2=
EXTT3=
EXTT4=
EXTT5=
EXTT6=
EXTT7=
EXTT8=
EXTT9=
EXTT10=
EXTT11=
EXTT12=
PLAYORDER=
